<?xml version="1.0" encoding="utf-8"?>
<!-- Generator: Adobe Illustrator 17.1.0, SVG Export Plug-In . SVG Version: 6.00 Build 0)  -->
<!DOCTYPE svg PUBLIC "-//W3C//DTD SVG 1.1//EN" "http://www.w3.org/Graphics/SVG/1.1/DTD/svg11.dtd">
<svg version="1.1" id="Layer_1" xmlns="http://www.w3.org/2000/svg" xmlns:xlink="http://www.w3.org/1999/xlink" x="0px" y="0px"
	 width="200px" height="200px" viewBox="0 0 200 200" enable-background="new 0 0 200 200" xml:space="preserve">
<g>
	<path d="M100.6,7.9c0,0-6,10.8-17.9,20.9C79.8,31.3,69.8,39,56,39c-3.2,0-11.2-0.4-22.7-7c0,0-2.6,15.6-2.3,29.1
		c0.1,3.1,0,19.4,4,36.6c0.5,2.3,5.9,26.8,17.6,46.5c1.7,2.9,17.5,34,47.9,50.1c30.5-16,46.2-47.2,47.9-50.1
		c11.7-19.6,17.1-44.2,17.6-46.5c4-17.1,3.9-33.5,4-36.6c0.3-13.5-2.3-29.1-2.3-29.1c-11.5,6.6-19.5,7-22.7,7
		c-13.8,0-23.7-7.7-26.7-10.1C106.5,18.7,100.6,7.9,100.6,7.9L100.6,7.9z"/>
	<path fill="#F98129" d="M100.6,127.2l-35.8,33.4c1.2,1.6,2.4,3.2,3.8,4.9c4.4,5.4,9.1,10.3,14,14.6c5.7,5,11.8,9.3,18,12.6
		c6.2-3.3,12.3-7.6,18-12.6c4.9-4.3,9.6-9.2,14-14.6c1.4-1.7,2.6-3.3,3.8-4.9L100.6,127.2z"/>
	<path fill="#F98129" d="M34.4,87.1c0.5,3.3,1.2,6.8,2,10.2c0,0.1,0,0.2,0.1,0.3c1.7,7.3,6.2,24.6,14.3,40.2l49.8-46.5l49.8,46.5
		c8.1-15.7,12.7-33,14.3-40.2c0-0.1,0.1-0.3,0.1-0.3c0.8-3.5,1.5-6.9,2-10.2H34.4z"/>
	<g>
		<g>
			<path fill="#FFFFFF" d="M113.6,72.8c1.1,0.3,2.1,0.6,3.5,0.6c2,0,3.4-0.6,4.1-0.9v-29v-0.1V42c-0.7,0.4-2,0.9-4.1,0.9
				c-1.4,0-2.4-0.3-3.5-0.6c-1.4-0.4-2.9-0.9-5.5-0.9c-4,0-5.9,1.2-7.1,2.1v30.5c1.1-0.9,3.1-2.1,7.1-2.1
				C110.7,71.9,112.2,72.4,113.6,72.8z"/>
			<path fill="#FFFFFF" d="M129.6,49.2h-1h-2.7c-0.1,0-0.2,0.1-0.2,0.2v1.1c0,0.1,0.1,0.2,0.2,0.2h0.8h1.7c0.1,0,0.2,0.1,0.2,0.2
				v3.5c0,0.1-0.1,0.2-0.2,0.2h-1.7h-0.8c-0.1,0-0.2,0.1-0.2,0.2v1.1c0,0.1,0.1,0.2,0.2,0.2h2.7h0.5h1v-7.1H129.6z"/>
			<path fill="#FFFFFF" d="M128.6,64.1h-2.7c-0.1,0-0.2,0.1-0.2,0.2v1.1c0,0.1,0.1,0.2,0.2,0.2h0.8h1.7c0.1,0,0.2,0.1,0.2,0.2v3.5
				c0,0.1-0.1,0.2-0.2,0.2h-1.7h-0.8c-0.1,0-0.2,0.1-0.2,0.2V71c0,0.1,0.1,0.2,0.2,0.2h2.7h0.5h1v-7.1h-0.5H128.6z"/>
			<path fill="#FFFFFF" d="M122.5,73.2c0,0-1.9,1.5-5.3,1.5s-4.5-1.5-9-1.5c-4.5,0-6,1.6-7,2.4h-0.6H100c-0.9-0.9-2.5-2.4-7-2.4
				s-5.5,1.5-9,1.5c-3.5,0-5.3-1.5-5.3-1.5V43.5h-1.9v33c0,0,18.8,0,19.5,0c0.5,0,0.6,0.3,0.6,0.6c0,0.3,0,1,0,1h3.6h3.6
				c0,0,0-0.7,0-1c0-0.3,0.1-0.6,0.6-0.6c0.7,0,19.5,0,19.5,0v-33h-1.9V73.2z"/>
			<path fill="#FFFFFF" d="M87.6,72.8c1.4-0.4,2.9-0.9,5.5-0.9c4,0,5.9,1.2,7.1,2.1V43.6C99,42.6,97,41.4,93,41.4
				c-2.5,0-4.1,0.5-5.5,0.9c-1.1,0.3-2.1,0.6-3.5,0.6c-2,0-3.4-0.6-4.1-0.9v1.4v0.1v29c0.7,0.4,2,0.9,4.1,0.9
				C85.5,73.4,86.4,73.1,87.6,72.8z"/>
			<path fill="#FFFFFF" d="M75.3,49.2h-2.7h-1h-0.5v7.1h1h0.5h2.7c0.1,0,0.2-0.1,0.2-0.2V55c0-0.1-0.1-0.2-0.2-0.2h-0.8h-1.7
				c-0.1,0-0.2-0.1-0.2-0.2V51c0-0.1,0.1-0.2,0.2-0.2h1.7h0.8c0.1,0,0.2-0.1,0.2-0.2v-1.1C75.5,49.3,75.4,49.2,75.3,49.2z"/>
			<path fill="#FFFFFF" d="M75.3,64.1h-2.7h-1h-0.5v7.1h1h0.5h2.7c0.1,0,0.2-0.1,0.2-0.2v-1.1c0-0.1-0.1-0.2-0.2-0.2h-0.8h-1.7
				c-0.1,0-0.2-0.1-0.2-0.2v-3.5c0-0.1,0.1-0.2,0.2-0.2h1.7h0.8c0.1,0,0.2-0.1,0.2-0.2v-1.1C75.5,64.2,75.4,64.1,75.3,64.1z"/>
		</g>
		<g>
			<path d="M87.2,45.8v0.1c-0.2,0-0.3,0.1-0.5,0.3c-0.1,0.1-0.2,0.4-0.4,0.8l-1.7,3.7h-0.1l-1.7-3.8c-0.2-0.5-0.3-0.7-0.4-0.8
				c-0.1-0.1-0.2-0.1-0.4-0.2v-0.1h2.3v0.1h-0.1c-0.2,0-0.4,0-0.4,0.1c-0.1,0-0.1,0.1-0.1,0.2c0,0,0,0.1,0,0.2
				c0,0.1,0.1,0.2,0.2,0.5l1,2.4l1-2.1c0.1-0.3,0.2-0.4,0.2-0.5c0-0.1,0-0.2,0-0.2c0-0.1,0-0.1-0.1-0.2c0-0.1-0.1-0.1-0.2-0.1
				c-0.1,0-0.2-0.1-0.4-0.1v-0.1H87.2z"/>
			<path d="M89.3,46.1v2h0.1c0.3,0,0.5-0.1,0.7-0.3c0.1-0.2,0.2-0.5,0.3-0.9h0.1v2.5h-0.1c0-0.3-0.1-0.5-0.2-0.7
				c-0.1-0.2-0.2-0.3-0.3-0.4c-0.1-0.1-0.3-0.1-0.5-0.1v1.4c0,0.3,0,0.4,0,0.5c0,0.1,0.1,0.1,0.1,0.1c0.1,0,0.2,0.1,0.3,0.1h0.3
				c0.5,0,0.8-0.1,1.1-0.3c0.3-0.2,0.5-0.5,0.6-1h0.1l-0.2,1.5h-4.2v-0.1h0.2c0.1,0,0.3,0,0.3-0.1c0.1,0,0.1-0.1,0.1-0.2
				c0-0.1,0-0.2,0-0.4v-3.2c0-0.2,0-0.4,0-0.4c0-0.1-0.1-0.1-0.1-0.2c-0.1-0.1-0.2-0.1-0.4-0.1h-0.2v-0.1h4v1.4h-0.1
				c-0.1-0.3-0.2-0.6-0.3-0.8c-0.1-0.2-0.3-0.3-0.5-0.3c-0.1,0-0.4-0.1-0.7-0.1H89.3z"/>
			<path d="M96.8,45.8v1.3h-0.1c-0.1-0.3-0.2-0.5-0.3-0.7c-0.1-0.1-0.2-0.2-0.4-0.3c-0.1,0-0.2-0.1-0.5-0.1h-0.4v3.7
				c0,0.2,0,0.4,0,0.5c0,0.1,0.1,0.1,0.2,0.2c0.1,0,0.2,0.1,0.3,0.1h0.2v0.1h-2.5v-0.1h0.2c0.1,0,0.3,0,0.3-0.1
				c0.1,0,0.1-0.1,0.1-0.2c0-0.1,0-0.2,0-0.4v-3.7h-0.3c-0.3,0-0.6,0.1-0.7,0.2c-0.2,0.2-0.3,0.5-0.4,0.8h-0.1v-1.3H96.8z"/>
		</g>
		<g>
			<path d="M104.9,45.8l2.4,3v-2.1c0-0.3,0-0.5-0.1-0.6c-0.1-0.1-0.3-0.2-0.6-0.2v-0.1h1.6v0.1c-0.2,0-0.3,0.1-0.4,0.1
				c-0.1,0-0.1,0.1-0.2,0.2c0,0.1-0.1,0.3-0.1,0.5v4h-0.1l-3.3-4v3.1c0,0.3,0.1,0.5,0.2,0.6c0.1,0.1,0.3,0.1,0.4,0.1h0.1v0.1h-1.7
				v-0.1c0.3,0,0.5-0.1,0.6-0.2c0.1-0.1,0.2-0.3,0.2-0.5v-3.4l-0.1-0.1c-0.1-0.1-0.2-0.2-0.3-0.3c-0.1,0-0.2-0.1-0.3-0.1v-0.1H104.9
				z"/>
			<path d="M111.2,45.7c0.8,0,1.4,0.2,1.9,0.7c0.5,0.5,0.7,1.1,0.7,1.8c0,0.6-0.2,1.2-0.5,1.6c-0.5,0.6-1.1,0.9-2,0.9
				c-0.9,0-1.5-0.3-2-0.9c-0.4-0.5-0.6-1-0.6-1.7c0-0.7,0.2-1.3,0.7-1.8C109.9,45.9,110.5,45.7,111.2,45.7z M111.3,46
				c-0.4,0-0.8,0.2-1,0.7c-0.2,0.4-0.3,0.9-0.3,1.6c0,0.8,0.1,1.4,0.4,1.8c0.2,0.3,0.5,0.4,0.8,0.4c0.2,0,0.4-0.1,0.6-0.2
				c0.2-0.2,0.4-0.4,0.5-0.7c0.1-0.3,0.2-0.8,0.2-1.3c0-0.6-0.1-1.1-0.2-1.4c-0.1-0.3-0.3-0.5-0.5-0.7C111.7,46,111.5,46,111.3,46z"
				/>
			<path d="M119.3,45.8v0.1c-0.2,0-0.3,0.1-0.5,0.3c-0.1,0.1-0.2,0.4-0.4,0.8l-1.7,3.7h-0.1l-1.7-3.8c-0.2-0.5-0.3-0.7-0.4-0.8
				c-0.1-0.1-0.2-0.1-0.4-0.2v-0.1h2.3v0.1h-0.1c-0.2,0-0.4,0-0.4,0.1c-0.1,0-0.1,0.1-0.1,0.2c0,0,0,0.1,0,0.2
				c0,0.1,0.1,0.2,0.2,0.5l1,2.4l1-2.1c0.1-0.3,0.2-0.4,0.2-0.5c0-0.1,0-0.2,0-0.2c0-0.1,0-0.1-0.1-0.2c0-0.1-0.1-0.1-0.2-0.1
				c-0.1,0-0.2-0.1-0.4-0.1v-0.1H119.3z"/>
		</g>
		<g>
			<path d="M87,54.9v1.3h-0.1c-0.1-0.3-0.2-0.5-0.3-0.7c-0.1-0.1-0.2-0.2-0.4-0.3c-0.1,0-0.2-0.1-0.5-0.1h-0.4v3.7
				c0,0.2,0,0.4,0,0.5c0,0.1,0.1,0.1,0.2,0.2c0.1,0,0.2,0.1,0.3,0.1h0.2v0.1h-2.5v-0.1h0.2c0.1,0,0.3,0,0.3-0.1
				c0.1,0,0.1-0.1,0.1-0.2c0-0.1,0-0.2,0-0.4v-3.7h-0.3c-0.3,0-0.6,0.1-0.7,0.2c-0.2,0.2-0.3,0.5-0.4,0.8h-0.1v-1.3H87z"/>
			<path d="M89.7,55.1v2h0.1c0.3,0,0.5-0.1,0.7-0.3c0.1-0.2,0.2-0.5,0.3-0.9h0.1v2.5h-0.1c0-0.3-0.1-0.5-0.2-0.7
				c-0.1-0.2-0.2-0.3-0.3-0.4c-0.1-0.1-0.3-0.1-0.5-0.1v1.4c0,0.3,0,0.4,0,0.5c0,0.1,0.1,0.1,0.1,0.1c0.1,0,0.2,0.1,0.3,0.1h0.3
				c0.5,0,0.8-0.1,1.1-0.3c0.3-0.2,0.5-0.5,0.6-1h0.1L92,59.7h-4.2v-0.1H88c0.1,0,0.3,0,0.3-0.1c0.1,0,0.1-0.1,0.1-0.2
				c0-0.1,0-0.2,0-0.4v-3.2c0-0.2,0-0.4,0-0.4c0-0.1-0.1-0.1-0.1-0.2C88.3,55,88.1,55,88,55h-0.2v-0.1h4v1.4h-0.1
				c-0.1-0.3-0.2-0.6-0.3-0.8c-0.1-0.2-0.3-0.3-0.5-0.3c-0.1,0-0.4-0.1-0.7-0.1H89.7z"/>
			<path d="M96.3,54.8l0,1.6h-0.1c-0.1-0.4-0.2-0.7-0.5-1c-0.3-0.2-0.6-0.4-0.9-0.4c-0.2,0-0.4,0.1-0.6,0.2
				c-0.1,0.1-0.2,0.3-0.2,0.4c0,0.1,0,0.2,0.1,0.3c0.1,0.1,0.2,0.2,0.3,0.3c0.1,0.1,0.4,0.2,0.8,0.4c0.6,0.3,0.9,0.5,1.1,0.8
				c0.2,0.2,0.3,0.5,0.3,0.8c0,0.4-0.2,0.8-0.5,1c-0.3,0.3-0.7,0.4-1.2,0.4c-0.2,0-0.3,0-0.4,0c-0.1,0-0.3-0.1-0.5-0.2
				c-0.1,0-0.2-0.1-0.3-0.1c-0.1,0-0.1,0-0.2,0.1c-0.1,0-0.1,0.1-0.2,0.2h-0.1V58h0.1c0.1,0.5,0.3,0.9,0.6,1.2
				c0.3,0.3,0.6,0.4,1,0.4c0.3,0,0.5-0.1,0.6-0.2c0.2-0.1,0.2-0.3,0.2-0.5c0-0.1,0-0.2-0.1-0.3c-0.1-0.1-0.2-0.2-0.3-0.3
				c-0.1-0.1-0.3-0.2-0.7-0.4c-0.4-0.2-0.8-0.4-0.9-0.6c-0.2-0.2-0.3-0.3-0.4-0.5c-0.1-0.2-0.2-0.4-0.2-0.6c0-0.4,0.1-0.7,0.4-1
				c0.3-0.3,0.6-0.4,1.1-0.4c0.2,0,0.3,0,0.5,0.1c0.1,0,0.2,0.1,0.4,0.2c0.2,0.1,0.3,0.1,0.3,0.1c0.1,0,0.1,0,0.1-0.1
				c0,0,0.1-0.1,0.1-0.3H96.3z"/>
		</g>
		<g>
			<path d="M107.7,54.9v1.3h-0.1c-0.1-0.3-0.2-0.5-0.3-0.7c-0.1-0.1-0.2-0.2-0.4-0.3c-0.1,0-0.2-0.1-0.5-0.1h-0.4v3.7
				c0,0.2,0,0.4,0,0.5c0,0.1,0.1,0.1,0.2,0.2c0.1,0,0.2,0.1,0.3,0.1h0.2v0.1h-2.5v-0.1h0.2c0.1,0,0.3,0,0.3-0.1
				c0.1,0,0.1-0.1,0.1-0.2c0-0.1,0-0.2,0-0.4v-3.7h-0.3c-0.3,0-0.6,0.1-0.7,0.2c-0.2,0.2-0.3,0.5-0.4,0.8h-0.1v-1.3H107.7z"/>
			<path d="M110.5,58.3h-1.7l-0.2,0.5c-0.1,0.2-0.1,0.3-0.1,0.4c0,0.1,0.1,0.2,0.2,0.3c0.1,0,0.2,0.1,0.5,0.1v0.1h-1.6v-0.1
				c0.2,0,0.3-0.1,0.4-0.2c0.1-0.1,0.2-0.4,0.4-0.7l1.7-3.9h0.1l1.7,4c0.2,0.4,0.3,0.6,0.4,0.7c0.1,0.1,0.2,0.1,0.3,0.1v0.1h-2.3
				v-0.1h0.1c0.2,0,0.3,0,0.4-0.1c0.1,0,0.1-0.1,0.1-0.2c0,0,0-0.1,0-0.1c0,0,0-0.1-0.1-0.3L110.5,58.3z M110.4,58.1l-0.7-1.7
				l-0.7,1.7H110.4z"/>
			<path d="M116.2,58.1l1.3-3.2h2V55h-0.2c-0.1,0-0.3,0-0.3,0.1c-0.1,0-0.1,0.1-0.1,0.2c0,0.1,0,0.2,0,0.4v3.2c0,0.2,0,0.4,0,0.5
				c0,0.1,0.1,0.1,0.2,0.2c0.1,0,0.2,0.1,0.3,0.1h0.2v0.1H117v-0.1h0.2c0.1,0,0.3,0,0.3-0.1c0.1,0,0.1-0.1,0.1-0.2
				c0-0.1,0-0.2,0-0.4v-3.6l-1.9,4.4h-0.1l-1.9-4.4v3.4c0,0.2,0,0.4,0,0.4c0,0.1,0.1,0.2,0.2,0.3c0.1,0.1,0.3,0.1,0.5,0.1v0.1h-1.7
				v-0.1h0c0.1,0,0.2,0,0.3-0.1c0.1,0,0.2-0.1,0.2-0.1c0-0.1,0.1-0.1,0.1-0.3c0,0,0-0.1,0-0.4v-3.1c0-0.2,0-0.4,0-0.5
				c0-0.1-0.1-0.1-0.2-0.2c-0.1,0-0.2-0.1-0.3-0.1h-0.2v-0.1h2L116.2,58.1z"/>
		</g>
		<g>
			<path d="M87.4,64.3v2h0.1c0.3,0,0.5-0.1,0.7-0.3c0.1-0.2,0.2-0.5,0.3-0.9h0.1v2.5h-0.1c0-0.3-0.1-0.5-0.2-0.7
				c-0.1-0.2-0.2-0.3-0.3-0.4c-0.1-0.1-0.3-0.1-0.5-0.1v1.4c0,0.3,0,0.4,0,0.5c0,0.1,0.1,0.1,0.1,0.1c0.1,0,0.2,0.1,0.3,0.1h0.3
				c0.5,0,0.8-0.1,1.1-0.3c0.3-0.2,0.5-0.5,0.6-1h0.1l-0.2,1.5h-4.2v-0.1h0.2c0.1,0,0.3,0,0.3-0.1c0.1,0,0.1-0.1,0.1-0.2
				c0-0.1,0-0.2,0-0.4v-3.2c0-0.2,0-0.4,0-0.4c0-0.1-0.1-0.1-0.1-0.2c-0.1-0.1-0.2-0.1-0.4-0.1h-0.2v-0.1h4v1.4h-0.1
				c-0.1-0.3-0.2-0.6-0.3-0.8c-0.1-0.2-0.3-0.3-0.5-0.3c-0.1,0-0.4-0.1-0.7-0.1H87.4z"/>
			<path d="M92.5,64.1l2.4,3V65c0-0.3,0-0.5-0.1-0.6c-0.1-0.1-0.3-0.2-0.6-0.2v-0.1h1.6v0.1c-0.2,0-0.3,0.1-0.4,0.1
				c-0.1,0-0.1,0.1-0.2,0.2c0,0.1-0.1,0.3-0.1,0.5v4H95l-3.3-4v3.1c0,0.3,0.1,0.5,0.2,0.6c0.1,0.1,0.3,0.1,0.4,0.1h0.1v0.1h-1.7
				v-0.1c0.3,0,0.5-0.1,0.6-0.2c0.1-0.1,0.2-0.3,0.2-0.5v-3.4l-0.1-0.1c-0.1-0.1-0.2-0.2-0.3-0.3c-0.1,0-0.2-0.1-0.3-0.1v-0.1H92.5z
				"/>
		</g>
		<g>
			<path d="M107.7,64.1v1.3h-0.1c-0.1-0.3-0.2-0.5-0.3-0.7c-0.1-0.1-0.2-0.2-0.4-0.3c-0.1,0-0.2-0.1-0.5-0.1h-0.4v3.7
				c0,0.2,0,0.4,0,0.5c0,0.1,0.1,0.1,0.2,0.2c0.1,0,0.2,0.1,0.3,0.1h0.2v0.1h-2.5v-0.1h0.2c0.1,0,0.3,0,0.3-0.1
				c0.1,0,0.1-0.1,0.1-0.2c0-0.1,0-0.2,0-0.4v-3.7h-0.3c-0.3,0-0.6,0.1-0.7,0.2c-0.2,0.2-0.3,0.5-0.4,0.8h-0.1v-1.3H107.7z"/>
			<path d="M113.2,64.1v0.1c-0.2,0-0.3,0.1-0.5,0.3c-0.1,0.1-0.2,0.4-0.4,0.8l-1.7,3.7h-0.1l-1.7-3.8c-0.2-0.5-0.3-0.7-0.4-0.8
				c-0.1-0.1-0.2-0.1-0.4-0.2v-0.1h2.3v0.1h-0.1c-0.2,0-0.4,0-0.4,0.1c-0.1,0-0.1,0.1-0.1,0.2c0,0,0,0.1,0,0.2
				c0,0.1,0.1,0.2,0.2,0.5l1,2.4l1-2.1c0.1-0.3,0.2-0.4,0.2-0.5c0-0.1,0-0.2,0-0.2c0-0.1,0-0.1-0.1-0.2c0-0.1-0.1-0.1-0.2-0.1
				c-0.1,0-0.2-0.1-0.4-0.1v-0.1H113.2z"/>
			<path d="M116.8,67.3l1.3-3.2h2v0.1h-0.2c-0.1,0-0.3,0-0.3,0.1c-0.1,0-0.1,0.1-0.1,0.2c0,0.1,0,0.2,0,0.4v3.2c0,0.2,0,0.4,0,0.5
				c0,0.1,0.1,0.1,0.2,0.2c0.1,0,0.2,0.1,0.3,0.1h0.2v0.1h-2.5v-0.1h0.2c0.1,0,0.3,0,0.3-0.1c0.1,0,0.1-0.1,0.1-0.2
				c0-0.1,0-0.2,0-0.4v-3.6l-1.9,4.4h-0.1l-1.9-4.4v3.4c0,0.2,0,0.4,0,0.4c0,0.1,0.1,0.2,0.2,0.3c0.1,0.1,0.3,0.1,0.5,0.1v0.1h-1.7
				v-0.1h0c0.1,0,0.2,0,0.3-0.1c0.1,0,0.2-0.1,0.2-0.1c0-0.1,0.1-0.1,0.1-0.3c0,0,0-0.1,0-0.4v-3.1c0-0.2,0-0.4,0-0.5
				c0-0.1-0.1-0.1-0.2-0.2c-0.1,0-0.2-0.1-0.3-0.1h-0.2v-0.1h2L116.8,67.3z"/>
		</g>
	</g>
</g>
</svg>
